<?xml version="1.0" encoding="utf-8"?>
<!-- Generator: Adobe Illustrator 22.1.0, SVG Export Plug-In . SVG Version: 6.00 Build 0)  -->
<svg version="1.1" id="Ebene_1" xmlns="http://www.w3.org/2000/svg" xmlns:xlink="http://www.w3.org/1999/xlink" x="0px" y="0px"
	 width="24px" height="24px" viewBox="0 0 24 24" style="enable-background:new 0 0 24 24;" xml:space="preserve">
<g id="surface1">
	<path fill="#1e2d37" d="M14.3,2.3c-4.1,0-7.5,3.4-7.5,7.5c0,1.8,0.6,3.4,1.7,4.7l-6,6l1.1,1.1l6-6c1.3,1.1,2.9,1.7,4.7,1.7c4.1,0,7.5-3.4,7.5-7.5
		S18.4,2.3,14.3,2.3z M14.3,3.8c3.3,0,6,2.7,6,6s-2.7,6-6,6s-6-2.7-6-6S10.9,3.8,14.3,3.8z"/>
</g>
</svg>
