<svg xmlns="http://www.w3.org/2000/svg" xmlns:xlink="http://www.w3.org/1999/xlink" viewBox="0 0 176 44"><path fill="#8CA5D7" d="M13.9 27.9c7.7 0 13.9-6.2 13.9-13.9.1-7.8-6.1-14-13.9-14S0 6.2 0 13.9c0 7.8 6.2 14 13.9 14"/><path fill="#8CA5D7" d="M13.9 44c7.7 0 13.9-6.2 13.9-13.9s-6.2-13.9-13.9-13.9S0 22.3 0 30.1 6.2 44 13.9 44"/><path fill="#233C91" d="M25.3 22c-2.5-3.6-6.7-5.9-11.4-5.9S5 18.4 2.5 22c2.5 3.6 6.7 5.9 11.4 5.9s8.9-2.3 11.4-5.9m149.3-2.4c0 .2-.2.4-.4.4h-.6v-.8h.6c.2 0 .4.1.4.4m.4 1.6l-.6-.9c.1 0 .6-.2.6-.7 0-.4-.4-.7-.8-.7h-.9v2.3h.3v-.9h.4l.6.9h.4zm.7-1.2c0 .9-.7 1.7-1.7 1.7-.9 0-1.7-.8-1.7-1.7 0-.9.7-1.7 1.7-1.7.9 0 1.7.8 1.7 1.7m.3 0c0-1.1-.9-2-2-2s-2 .9-2 2 .9 2 2 2 2-.9 2-2"/><path fill="gold" d="M27.9 35.9c7.7 0 13.9-6.2 13.9-13.9S35.6 8.1 27.9 8.1 14 14.3 14 22c-.1 7.7 6.2 13.9 13.9 13.9"/><defs><path id="a" d="M13.9 22c0 7.7 6.2 13.9 13.9 13.9S41.7 29.7 41.7 22 35.6 8.1 27.9 8.1c-7.7 0-14 6.2-14 13.9"/></defs><clipPath id="b"><use xlink:href="#a" overflow="visible"/></clipPath><path clip-path="url(#b)" fill="#233C91" d="M43.2 16v-3.6h-5.1c-3.4 0-5.6 2.3-5.6 6.1v.7H29V23h3.5v13h4.4V23h5.4v-3.9h-5.4v-.7c0-1.6.8-2.4 2.1-2.4h4.2z"/><path fill="#233C91" d="M170.4 36V24.1c0-3.3-1.8-5.4-5.5-5.4-2.7 0-4.8 1.3-5.9 2.6v-2.2h-4.4V36h4.4V24.6c.8-1 2.1-2 3.8-2 1.9 0 3.1.8 3.1 3.1V36h4.5zm-27.1-3.5c-2.8 0-4.3-2.3-4.3-4.9 0-2.6 1.5-4.9 4.3-4.9s4.3 2.3 4.3 4.9c0 2.6-1.5 4.9-4.3 4.9m0 3.9c5.6 0 8.9-4.1 8.9-8.9s-3.3-8.8-8.9-8.8c-5.5 0-8.9 4-8.9 8.8s3.3 8.9 8.9 8.9m-15.9 0c3.5 0 5.5-1.5 6.7-3.1l-2.9-2.7c-.8 1.2-2 1.8-3.6 1.8-2.7 0-4.6-2-4.6-4.9s1.9-4.9 4.6-4.9c1.5 0 2.8.6 3.6 1.8l2.9-2.7c-1.1-1.5-3.2-3-6.7-3-5.2 0-8.9 3.7-8.9 8.8 0 5.3 3.7 8.9 8.9 8.9m-24.8 6.2c.5.2 1.7.3 2.2.3 2.9-.1 5.1-.9 6.4-4.1l7.9-19.6h-4.7L110 30.9l-4.4-11.7h-4.7l6.8 17.1-.6 1.5c-.4.9-1.2 1.2-2.3 1.2-.4 0-1-.1-1.4-.3l-.8 3.9zM100 36V23.8c0-3.5-1.8-5.1-5-5.1-2.6 0-4.8 1.5-5.8 3-.6-1.9-2.2-3-4.7-3-2.6 0-4.8 1.6-5.5 2.6v-2.2h-4.4V36H79V24.6c.7-.9 2-2 3.5-2 1.8 0 2.5 1.1 2.5 2.7V36h4.5V24.6c.6-.9 1.9-2 3.5-2 1.8 0 2.5 1.1 2.5 2.7V36h4.5zm-32.3 0V24.9c.7-1.1 2.7-1.9 4.2-1.9.5 0 .9 0 1.2.1v-4.3c-2.1 0-4.2 1.2-5.4 2.7v-2.3h-4.4V36h4.4zM52 32.5c-2.8 0-4.3-2.3-4.3-4.9 0-2.6 1.5-4.9 4.3-4.9s4.3 2.3 4.3 4.9c0 2.6-1.5 4.9-4.3 4.9m0 3.9c5.6 0 8.9-4.1 8.9-8.9s-3.3-8.8-8.9-8.8c-5.5 0-8.9 4-8.9 8.8s3.4 8.9 8.9 8.9"/></svg>