<?xml version="1.0" encoding="utf-8"?>
<!-- Generator: Adobe Illustrator 22.1.0, SVG Export Plug-In . SVG Version: 6.00 Build 0)  -->
<svg version="1.1" id="Ebene_1" xmlns="http://www.w3.org/2000/svg" xmlns:xlink="http://www.w3.org/1999/xlink" x="0px" y="0px"
	 viewBox="0 0 176 44" enable-background="new 0 0 176 44" xml:space="preserve">
<g>
	<path fill="#8CA5D7" d="M13.9,27.9c7.7,0,13.9-6.2,13.9-13.9C27.9,6.2,21.7,0,13.9,0S0,6.2,0,13.9C0,21.7,6.2,27.9,13.9,27.9"/>
	<path fill="#8CA5D7" d="M13.9,44c7.7,0,13.9-6.2,13.9-13.9s-6.2-13.9-13.9-13.9S0,22.3,0,30.1S6.2,44,13.9,44"/>
	<path fill="#233C91" d="M25.3,22c-2.5-3.6-6.7-5.9-11.4-5.9c-4.7,0-8.9,2.3-11.4,5.9c2.5,3.6,6.7,5.9,11.4,5.9
		C18.6,27.9,22.8,25.6,25.3,22"/>
	<path fill="#233C91" d="M174.6,19.6c0,0.2-0.2,0.4-0.4,0.4h-0.6v-0.8h0.6C174.4,19.2,174.6,19.3,174.6,19.6 M175,21.2l-0.6-0.9
		c0.1,0,0.6-0.2,0.6-0.7c0-0.4-0.4-0.7-0.8-0.7h-0.9v2.3h0.3v-0.9h0.4l0.6,0.9H175z M175.7,20c0,0.9-0.7,1.7-1.7,1.7
		c-0.9,0-1.7-0.8-1.7-1.7c0-0.9,0.7-1.7,1.7-1.7C174.9,18.3,175.7,19.1,175.7,20 M176,20c0-1.1-0.9-2-2-2c-1.1,0-2,0.9-2,2
		c0,1.1,0.9,2,2,2C175.1,22,176,21.1,176,20"/>
	<path fill="#FFD700" d="M27.9,35.9c7.7,0,13.9-6.2,13.9-13.9c0-7.7-6.2-13.9-13.9-13.9c-7.7,0-13.9,6.2-13.9,13.9
		C13.9,29.7,20.2,35.9,27.9,35.9"/>
</g>
<g>
	<defs>
		<path id="SVGID_1_" d="M13.9,22c0,7.7,6.2,13.9,13.9,13.9c7.7,0,13.9-6.2,13.9-13.9S35.6,8.1,27.9,8.1C20.2,8.1,13.9,14.3,13.9,22
			"/>
	</defs>
	<clipPath id="SVGID_2_">
		<use xlink:href="#SVGID_1_"  overflow="visible"/>
	</clipPath>
	<path clip-path="url(#SVGID_2_)" fill="#233C91" d="M43.2,16v-0.6V13v-0.6h-5.1c0,0,0,0,0,0c-3.4,0-5.6,2.3-5.6,6.1v0.7h-3.5V23
		h3.5v13h4.4V23h5.4v-3.9h-5.4v-0.7c0-1.6,0.8-2.4,2.1-2.4H43.2z"/>
</g>
<g>
	<path fill="#233C91" d="M170.4,36V24.1c0-3.3-1.8-5.4-5.5-5.4c-2.7,0-4.8,1.3-5.9,2.6v-2.2h-4.4V36h4.4V24.6c0.8-1,2.1-2,3.8-2
		c1.9,0,3.1,0.8,3.1,3.1V36H170.4z M143.3,32.5c-2.8,0-4.3-2.3-4.3-4.9c0-2.6,1.5-4.9,4.3-4.9c2.8,0,4.3,2.3,4.3,4.9
		C147.6,30.2,146.1,32.5,143.3,32.5 M143.3,36.4c5.6,0,8.9-4.1,8.9-8.9s-3.3-8.8-8.9-8.8c-5.5,0-8.9,4-8.9,8.8
		S137.7,36.4,143.3,36.4 M127.4,36.4c3.5,0,5.5-1.5,6.7-3.1l-2.9-2.7c-0.8,1.2-2,1.8-3.6,1.8c-2.7,0-4.6-2-4.6-4.9s1.9-4.9,4.6-4.9
		c1.5,0,2.8,0.6,3.6,1.8l2.9-2.7c-1.1-1.5-3.2-3-6.7-3c-5.2,0-8.9,3.7-8.9,8.8C118.5,32.8,122.2,36.4,127.4,36.4 M102.6,42.6
		c0.5,0.2,1.7,0.3,2.2,0.3c2.9-0.1,5.1-0.9,6.4-4.1l7.9-19.6h-4.7l-4.4,11.7l-4.4-11.7h-4.7l6.8,17.1l-0.6,1.5
		c-0.4,0.9-1.2,1.2-2.3,1.2c-0.4,0-1-0.1-1.4-0.3L102.6,42.6z M100,36V23.8c0-3.5-1.8-5.1-5-5.1c-2.6,0-4.8,1.5-5.8,3
		c-0.6-1.9-2.2-3-4.7-3c-2.6,0-4.8,1.6-5.5,2.6v-2.2h-4.4V36h4.4V24.6c0.7-0.9,2-2,3.5-2c1.8,0,2.5,1.1,2.5,2.7V36h4.5V24.6
		c0.6-0.9,1.9-2,3.5-2c1.8,0,2.5,1.1,2.5,2.7V36H100z M67.7,36V24.9c0.7-1.1,2.7-1.9,4.2-1.9c0.5,0,0.9,0,1.2,0.1v-4.3
		c-2.1,0-4.2,1.2-5.4,2.7v-2.3h-4.4V36H67.7z M52,32.5c-2.8,0-4.3-2.3-4.3-4.9c0-2.6,1.5-4.9,4.3-4.9c2.8,0,4.3,2.3,4.3,4.9
		C56.3,30.2,54.8,32.5,52,32.5 M52,36.4c5.6,0,8.9-4.1,8.9-8.9s-3.3-8.8-8.9-8.8c-5.5,0-8.9,4-8.9,8.8S46.5,36.4,52,36.4"/>
</g>
</svg>
